%FSTAX44Y44*%
%MOMM*%
%SFA1B1*%

%IPPOS*%
%ADD10C,0.100000*%
%ADD45C,0.012700*%
%ADD46C,0.006400*%
%LNled_pd_gtl_wh_3000148_(4f00222l_7p00492a)-1*%
%LPD*%
G54D10*
X01051249Y01209635D02*
D01*
D01*
G75*
G03X01059249Y01209649I00003999J00000013D01*
G74*G01*
Y01259463D02*
D01*
D01*
G75*
G03X01051249Y01259449I-00003999J-00000013D01*
G74*G01*
Y01209649*
X01059249D02*
Y01259449D01*
G54D45*
X02724994Y01360034D02*
D01*
D01*
G75*
G03X0270001Y01385018I-00024984J-0D01*
G74*G01*
X02224999Y01464999D02*
D01*
D01*
G75*
G03X02199999Y01489999I-00024999J0D01*
G74*G01*
X02224999Y01409999D02*
D01*
D01*
G75*
G03X02249999Y01384999I00025000J0D01*
G74*G01*
X01774999Y01489999D02*
D01*
D01*
G75*
G03X01749999Y01464999I0J-00025000D01*
G74*G01*
X01724999Y01384999D02*
D01*
D01*
G75*
G03X01749999Y01409999I-0J00025000D01*
G74*G01*
X01224999Y01464999D02*
D01*
D01*
G75*
G03X01199999Y01489999I-00025000J0D01*
G74*G01*
X01224999Y01409999D02*
D01*
D01*
G75*
G03X01249999Y01384999I00025000J0D01*
G74*G01*
X00774999Y01489999D02*
D01*
D01*
G75*
G03X00749999Y01464999I0J-00025000D01*
G74*G01*
X00724999Y01384999D02*
D01*
D01*
G75*
G03X00749999Y01409999I-0J00025000D01*
G74*G01*
X00224999D02*
D01*
D01*
G75*
G03X00249999Y01384999I00025000J0D01*
G74*G01*
X00224999Y01464999D02*
D01*
D01*
G75*
G03X00199999Y01489999I-00025000J0D01*
G74*G01*
X00024999D02*
D01*
D01*
G75*
G03X0Y01464999I0J-00025000D01*
G74*G01*
Y00124999D02*
D01*
D01*
G75*
G03X00024999Y00099999I00025000J0D01*
G74*G01*
X00249999Y00074999D02*
D01*
D01*
G75*
G03X00224999Y00099999I-00024999J0D01*
G74*G01*
X00249999Y00024999D02*
D01*
D01*
G75*
G03X00274999Y0I00025000J-0D01*
G74*G01*
X00699999D02*
D01*
D01*
G75*
G03X00724999Y00024999I0J00025000D01*
G74*G01*
X00749999Y00099999D02*
D01*
D01*
G75*
G03X00724999Y00074999I0J-00024999D01*
G74*G01*
X01249999D02*
D01*
D01*
G75*
G03X01224999Y00099999I-00025000J-0D01*
G74*G01*
X01249999Y00024999D02*
D01*
D01*
G75*
G03X01274999Y0I00024999J-0D01*
G74*G01*
X01749999Y00099999D02*
D01*
D01*
G75*
G03X01724999Y00074999I0J-00024999D01*
G74*G01*
X01699999Y0D02*
D01*
D01*
G75*
G03X01724999Y00024999I0J00025000D01*
G74*G01*
X02249999Y00074999D02*
D01*
D01*
G75*
G03X02224999Y00099999I-00025000J-0D01*
G74*G01*
X02249999Y00024999D02*
D01*
D01*
G75*
G03X02274999Y0I00024999J-0D01*
G74*G01*
X02700001Y0D02*
D01*
D01*
G75*
G03X02725001Y00024998I0J00025000D01*
G74*G01*
X02249983Y01384998D02*
X02700009Y01385018D01*
X02224999Y01409999D02*
Y01464999D01*
X01774999Y01489999D02*
X02199999D01*
X01749999Y01409999D02*
Y01464999D01*
X01249999Y01384999D02*
X01724999D01*
X01224999Y01409999D02*
Y01464999D01*
X00749999Y01409999D02*
Y01464999D01*
X00774999Y01489999D02*
X01199999D01*
X00249999Y01384999D02*
X00724999D01*
X00224999Y01410043D02*
Y01464999D01*
X00024999Y01489999D02*
X00199999D01*
X0Y00124999D02*
Y01464999D01*
X00024999Y00099999D02*
X00224999D01*
X00249999Y00024999D02*
Y00074999D01*
X00274999Y0D02*
X00699999D01*
X00724999Y00024999D02*
Y00074999D01*
X00749999Y00099999D02*
X01224999D01*
X01249999Y00024999D02*
Y00074999D01*
X01274999Y0D02*
X01699999D01*
X01724999Y00024999D02*
Y00074999D01*
X01749999Y00099999D02*
X02224999D01*
X02249999Y00024999D02*
Y00074999D01*
X02274999Y0D02*
X02700001Y0D01*
X02725001Y00024998D02*
X02725009Y01360034D01*
G54D46*
X02200031Y01489999D02*
D01*
D01*
G75*
G03X02199967I-00000032J0D01*
G74*G01*
D01*
G75*
G03X02200031I00000032J0D01*
G74*G01*
X02225031Y00099999D02*
D01*
D01*
G75*
G03X02224967I-00000032J0D01*
G74*G01*
D01*
G75*
G03X02225031I00000032J0D01*
G74*G01*
X02725033Y00024998D02*
D01*
D01*
G75*
G03X02724969I-00000032J0D01*
G74*G01*
D01*
G75*
G03X02725033I00000032J0D01*
G74*G01*
D01*
D01*
G75*
G03X02724969I-00000032J0D01*
G74*G01*
D01*
G75*
G03X02725033I00000032J0D01*
G74*G01*
M02*